# xmcd CD database file
#
# Track frame offsets:
#	150
#	70806
#	89973
#	115663
#	133827
#	174811
#	223434
#	244086
#
# Disc length: 4440 seconds
#
# Revision: 2
# Processed by: cddbd v1.4b41PL1 Copyright (c) Steve Scherf et al.
# Submitted via: Feurio! 1.51.15ß - http://www.feurio.com
#
DISCID=78115608
DTITLE=Blues Traveler - Live From The Fall [CD2/2)
DYEAR=1900
DGENRE=
TTITLE0=Alone
TTITLE1=Freedom
TTITLE2=Mountains Win
TTITLE3=Breakfast
TTITLE4=Go
TTITLE5=Low/Go
TTITLE6=Run
TTITLE7=Hippie, Imagine
EXTD=
EXTT0=
EXTT1=
EXTT2=
EXTT3=
EXTT4=
EXTT5=
EXTT6=
EXTT7=
PLAYORDER=
